<svg xmlns="http://www.w3.org/2000/svg" viewBox="0 0 1584 396" role="img" aria-labelledby="title desc">
  <title id="title">BlueWave Solutions Social Banner</title>
  <desc id="desc">Bannière sobre pour LinkedIn et Facebook BlueWave Solutions.</desc>
  <defs>
    <linearGradient id="bg" x1="0" y1="0" x2="1" y2="1">
      <stop offset="0%" stop-color="#10324F"/>
      <stop offset="55%" stop-color="#0F3557"/>
      <stop offset="100%" stop-color="#134664"/>
    </linearGradient>
    <linearGradient id="wave" x1="0" y1="0" x2="1" y2="0">
      <stop offset="0%" stop-color="#1186B5" stop-opacity="0.08"/>
      <stop offset="100%" stop-color="#34B4E6" stop-opacity="0.22"/>
    </linearGradient>
  </defs>
  <rect width="1584" height="396" fill="url(#bg)"/>
  <path d="M0 302c136-35 249-46 340-35 117 14 220 53 320 53 108 0 199-35 314-56 142-25 348-11 610 38v94H0z" fill="url(#wave)"/>
  <circle cx="1358" cy="96" r="54" fill="#E2B85C" fill-opacity="0.92"/>
  <g transform="translate(104 98)">
    <path
      d="M12 62c12-17 31-27 56-30 24-3 47 1 68 13-14 2-27 7-38 15-14 10-30 15-48 15-15 0-28-4-38-13z"
      fill="#34B4E6"
    />
    <path
      d="M18 81c14 7 30 10 48 10 22 0 41-6 58-18 12-8 22-18 29-30-5 18-15 33-30 45-16 13-34 19-56 19-19 0-35-6-49-17z"
      fill="#F3F7FB"
    />
    <path
      d="M105 0c12 0 22 5 30 13 8 8 12 18 12 31-11-6-23-10-36-10-8 0-16 1-23 4 1-11 5-20 12-27 7-7 16-11 27-11z"
      fill="#E2B85C"
    />
    <path
      d="M12 96c16 8 33 12 51 12 18 0 35-4 50-12"
      stroke="#F3F7FB"
      stroke-linecap="round"
      stroke-width="5"
    />
  </g>
  <g transform="translate(272 114)">
    <text
      x="0"
      y="42"
      fill="#FFFFFF"
      font-family="Manrope, Avenir Next, Segoe UI, Arial, sans-serif"
      font-size="46"
      font-weight="800"
      letter-spacing="-1.2"
    >
      BlueWave
    </text>
    <text
      x="2"
      y="80"
      fill="#D6E3F0"
      font-family="Manrope, Avenir Next, Segoe UI, Arial, sans-serif"
      font-size="25"
      font-weight="600"
      letter-spacing="6"
    >
      SOLUTIONS
    </text>
    <text
      x="0"
      y="146"
      fill="#F3F7FB"
      font-family="Playfair Display, Georgia, serif"
      font-size="40"
      font-weight="600"
    >
      Territoires côtiers, environnement et économie bleue
    </text>
    <text
      x="0"
      y="188"
      fill="#C9D9E9"
      font-family="Manrope, Avenir Next, Segoe UI, Arial, sans-serif"
      font-size="22"
      font-weight="500"
    >
      Bureau d'étude, de conseil et de recherche appliquée
    </text>
  </g>
</svg>
