<svg xmlns="http://www.w3.org/2000/svg" viewBox="0 0 128 128" role="img" aria-labelledby="title desc">
  <title id="title">BlueWave Solutions Icon</title>
  <desc id="desc">Symbole marin premium associant horizon, soleil et mouvement de vague.</desc>
  <g fill="none" fill-rule="evenodd">
    <path
      d="M20 75c10-13 24-21 41-23 18-3 34 0 49 9-10 1-19 5-27 11-11 8-23 12-37 12-10 0-19-1-26-4z"
      fill="#1186B5"
    />
    <path
      d="M24 88c11 4 23 6 36 6 16 0 31-5 45-14 8-5 15-12 21-20-5 13-13 24-25 34-12 10-26 15-43 15-13 0-25-3-34-9z"
      fill="#0F3557"
    />
    <path
      d="M84 22c10 0 19 4 26 11 7 7 11 16 11 26-9-6-20-9-32-9-7 0-13 1-19 3 1-9 4-16 10-22 6-6 14-9 24-9z"
      fill="#D7A84A"
    />
    <path
      d="M18 98c13 7 28 10 44 10 15 0 29-3 41-9"
      stroke="#0F3557"
      stroke-linecap="round"
      stroke-width="5"
    />
  </g>
</svg>
