<svg xmlns="http://www.w3.org/2000/svg" width="1600" height="900" viewBox="0 0 1600 900" role="img" aria-labelledby="title desc">
<title id="title">Méthode publique BlueWave</title><desc id="desc">Visualisation BlueWave V2.</desc>
<defs>
  <linearGradient id="g" x1="0" x2="1" y1="0" y2="1"><stop offset="0" stop-color="#06223A"/><stop offset="0.55" stop-color="#0B5D7A"/><stop offset="1" stop-color="#21B6C8"/></linearGradient>
  <linearGradient id="sand" x1="0" x2="1"><stop offset="0" stop-color="#E8D7B5"/><stop offset="1" stop-color="#F7F2E8"/></linearGradient>
  <filter id="shadow" x="-20%" y="-20%" width="140%" height="140%"><feDropShadow dx="0" dy="18" stdDeviation="18" flood-color="#02101d" flood-opacity="0.25"/></filter>
  <pattern id="waves" width="180" height="70" patternUnits="userSpaceOnUse"><path d="M0 35 C 45 5, 90 65, 135 35 S 225 35, 270 35" fill="none" stroke="#6ED6D1" stroke-opacity="0.12" stroke-width="2"/></pattern>
</defs>
<rect width="1600" height="900" fill="url(#g)"/><rect width="1600" height="900" fill="url(#waves)"/>

<text x="80" y="95" fill="#F7F2E8" font-family="Arial" font-size="46" font-weight="700">Méthode publique BlueWave</text>
<text x="82" y="142" fill="#CFE9EE" font-family="Arial" font-size="24">Transformer un enjeu complexe en décision structurée</text>
<path d="M120 455 C 300 300, 480 610, 660 455 S 1020 300, 1210 455 S 1440 580, 1510 455" fill="none" stroke="#6ED6D1" stroke-width="5" opacity="0.75"/>
<g filter="url(#shadow)"><circle cx="160" cy="455" r="62" fill="#F7F2E8"/><text x="160" y="445" text-anchor="middle" font-family="Arial" font-size="22" font-weight="700" fill="#083A5B">1</text><text x="160" y="480" text-anchor="middle" font-family="Arial" font-size="18" fill="#083A5B">Comprendre</text></g><g filter="url(#shadow)"><circle cx="410" cy="455" r="62" fill="#F7F2E8"/><text x="410" y="445" text-anchor="middle" font-family="Arial" font-size="22" font-weight="700" fill="#083A5B">2</text><text x="410" y="480" text-anchor="middle" font-family="Arial" font-size="18" fill="#083A5B">Cadrer</text></g><g filter="url(#shadow)"><circle cx="660" cy="455" r="62" fill="#F7F2E8"/><text x="660" y="445" text-anchor="middle" font-family="Arial" font-size="22" font-weight="700" fill="#083A5B">3</text><text x="660" y="480" text-anchor="middle" font-family="Arial" font-size="18" fill="#083A5B">Cartographier</text></g><g filter="url(#shadow)"><circle cx="910" cy="455" r="62" fill="#F7F2E8"/><text x="910" y="445" text-anchor="middle" font-family="Arial" font-size="22" font-weight="700" fill="#083A5B">4</text><text x="910" y="480" text-anchor="middle" font-family="Arial" font-size="18" fill="#083A5B">Structurer</text></g><g filter="url(#shadow)"><circle cx="1160" cy="455" r="62" fill="#F7F2E8"/><text x="1160" y="445" text-anchor="middle" font-family="Arial" font-size="22" font-weight="700" fill="#083A5B">5</text><text x="1160" y="480" text-anchor="middle" font-family="Arial" font-size="18" fill="#083A5B">Décider</text></g><g filter="url(#shadow)"><circle cx="1410" cy="455" r="62" fill="#F7F2E8"/><text x="1410" y="445" text-anchor="middle" font-family="Arial" font-size="22" font-weight="700" fill="#083A5B">6</text><text x="1410" y="480" text-anchor="middle" font-family="Arial" font-size="18" fill="#083A5B">Transmettre</text></g>
<rect x="120" y="620" width="1360" height="150" rx="28" fill="#F7F2E8" opacity="0.96"/>
<text x="160" y="675" fill="#06223A" font-family="Arial" font-size="26" font-weight="700">Sorties visibles</text>
<text x="160" y="720" fill="#355267" font-family="Arial" font-size="23">Question reformulée · périmètre · matrice acteurs/usages · options · feuille de route · note, diagnostic ou atelier</text>

</svg>
