<svg xmlns="http://www.w3.org/2000/svg" width="1600" height="900" viewBox="0 0 1600 900" role="img" aria-labelledby="title desc">
  <title id="title">Club Aménagement &amp; Biodiversité — Solutions fondées sur la Nature</title>
  <desc id="desc">Visuel éditorial BlueWave : catégorie Événement, rencontre régionale du 30 juin 2026 à Aix-en-Provence consacrée aux Solutions fondées sur la Nature. Motif schématique, sans donnée chiffrée.</desc>
  <defs>
    <linearGradient id="g" x1="0" x2="1" y1="0" y2="1">
      <stop offset="0" stop-color="#06223A"/>
      <stop offset="0.55" stop-color="#0B5D7A"/>
      <stop offset="1" stop-color="#21B6C8"/>
    </linearGradient>
    <filter id="shadow" x="-20%" y="-20%" width="140%" height="140%">
      <feDropShadow dx="0" dy="16" stdDeviation="16" flood-color="#02101D" flood-opacity="0.24"/>
    </filter>
    <pattern id="waves" width="180" height="70" patternUnits="userSpaceOnUse">
      <path d="M0 35 C45 5 90 65 135 35 S225 35 270 35" fill="none" stroke="#6ED6D1" stroke-opacity="0.12" stroke-width="2"/>
    </pattern>
  </defs>
  <rect width="1600" height="900" fill="url(#g)"/>
  <rect width="1600" height="900" fill="url(#waves)"/>

  <g filter="url(#shadow)">
    <rect x="150" y="110" width="1300" height="680" rx="26" fill="#F7F2E8"/>
  </g>

  <rect x="210" y="178" width="230" height="52" rx="26" fill="#06223A"/>
  <text x="325" y="213" fill="#6ED6D1" font-family="Arial, sans-serif" font-size="24" font-weight="800" letter-spacing="3" text-anchor="middle">ÉVÉNEMENT</text>

  <text x="210" y="308" fill="#06223A" font-family="Arial, sans-serif" font-size="50" font-weight="800">Club Aménagement</text>
  <text x="210" y="380" fill="#06223A" font-family="Arial, sans-serif" font-size="50" font-weight="800">&amp; Biodiversité</text>
  <text x="210" y="452" fill="#06223A" font-family="Arial, sans-serif" font-size="50" font-weight="800">Solutions fondées sur la Nature</text>
  <rect x="210" y="554" width="180" height="5" rx="3" fill="#21B6C8"/>

  <text x="210" y="632" fill="#3C5568" font-family="Arial, sans-serif" font-size="32" font-weight="600">30 juin 2026</text>
  <text x="210" y="682" fill="#3C5568" font-family="Arial, sans-serif" font-size="32" font-weight="600">Aix-en-Provence</text>

  <g opacity="0.9">
    <path d="M1210 620 L1210 400" fill="none" stroke="#0B5D7A" stroke-width="5" stroke-linecap="round"/>
    <path d="M1210 470 C1150 452 1118 404 1120 352 C1176 356 1212 400 1210 470 Z" fill="#21B6C8" fill-opacity="0.35" stroke="#0B5D7A" stroke-width="3"/>
    <path d="M1210 520 C1270 502 1302 454 1300 402 C1244 406 1208 450 1210 520 Z" fill="#21B6C8" fill-opacity="0.2" stroke="#0B5D7A" stroke-width="3"/>
    <path d="M1060 660 C1140 636 1280 636 1360 660" fill="none" stroke="#0B5D7A" stroke-width="4" stroke-opacity="0.45"/>
    <path d="M1060 690 C1140 666 1280 666 1360 690" fill="none" stroke="#21B6C8" stroke-width="4" stroke-opacity="0.35"/>
  </g>

  <text x="210" y="748" fill="#7B8E9C" font-family="Arial, sans-serif" font-size="24" font-weight="600">BlueWave Solutions — activité</text>
</svg>
